HIERARCHY
ROOT hip
{
	OFFSET 0.000000 0.000000 0.000000
	CHANNELS 6 Xposition Yposition Zposition Xrotation Zrotation Yrotation 
	JOINT abdomen
	{
		OFFSET 0.000000 3.422050 0.000000
		CHANNELS 3 Xrotation Zrotation Yrotation 
		JOINT chest
		{
			OFFSET 0.000000 8.486693 -0.684411
			CHANNELS 3 Xrotation Zrotation Yrotation 
			JOINT neck
			{
				OFFSET 0.000000 10.266162 -0.273764
				CHANNELS 3 Xrotation Zrotation Yrotation 
				JOINT head
				{
					OFFSET 0.000000 3.148285 0.000000
					CHANNELS 3 Xrotation Zrotation Yrotation 
					End Site
					{
						OFFSET 0.000000 3.148289 0.000000
					}
				}
			}
			JOINT lCollar
			{
				OFFSET 3.422053 6.707223 -0.821293
				CHANNELS 3 Yrotation Zrotation Xrotation 
				JOINT lShldr
				{
					OFFSET 3.285171 0.000000 0.000000
					CHANNELS 3 Zrotation Yrotation Xrotation 
					JOINT lForeArm
					{
						OFFSET 10.129278 0.000000 0.000000
						CHANNELS 3 Yrotation Zrotation Xrotation 
						JOINT lHand
						{
							OFFSET 8.486692 0.000000 0.000000
							CHANNELS 3 Zrotation Yrotation Xrotation 
							End Site
							{
								OFFSET 4.106464 0.000000 0.000000
							}
						}
					}
				}
			}
			JOINT rCollar
			{
				OFFSET -3.558935 6.707223 -0.821293
				CHANNELS 3 Yrotation Zrotation Xrotation 
				JOINT rShldr
				{
					OFFSET -3.148289 0.000000 0.000000
					CHANNELS 3 Zrotation Yrotation Xrotation 
					JOINT rForeArm
					{
						OFFSET -10.266159 0.000000 0.000000
						CHANNELS 3 Yrotation Zrotation Xrotation 
						JOINT rHand
						{
							OFFSET -8.349810 0.000000 0.000000
							CHANNELS 3 Zrotation Yrotation Xrotation 
							End Site
							{
								OFFSET -4.106464 0.000000 0.000000
							}
						}
					}
				}
			}
		}
	}
	JOINT lThigh
	{
		OFFSET 5.338403 -1.642589 1.368821
		CHANNELS 3 Xrotation Zrotation Yrotation 
		JOINT lShin
		{
			OFFSET -2.053232 -20.121670 0.000000
			CHANNELS 3 Xrotation Zrotation Yrotation 
			JOINT lFoot
			{
				OFFSET 0.000000 -19.300380 -1.231939
				CHANNELS 3 Xrotation Yrotation Zrotation 
				End Site
				{
					OFFSET 0.000000 -2.463878 4.653993
				}
			}
		}
	}
	JOINT rThigh
	{
		OFFSET -5.338403 -1.642589 1.368821
		CHANNELS 3 Xrotation Zrotation Yrotation 
		JOINT rShin
		{
			OFFSET 2.053232 -20.121670 0.000000
			CHANNELS 3 Xrotation Zrotation Yrotation 
			JOINT rFoot
			{
				OFFSET 0.000000 -19.300380 -1.231939
				CHANNELS 3 Xrotation Yrotation Zrotation 
				End Site
				{
					OFFSET 0.000000 -2.463878 4.653993
				}
			}
		}
	}
}
MOTION
Frames: 14
Frame Time: 0.033325
19.869728 16.744160 26.784323 -89.996941 0.254758 -179.732864 -6.716179 0.067741 -0.135177 29.031477 1.198152 -0.433809 15.347938 0.000000 0.000000 -24.002691 0.000000 0.000000 13.103051 -21.114429 20.404064 58.692711 -66.652756 -50.709114 -90.808578 6.613804 1.601429 47.418934 31.189020 -22.683773 -17.217989 20.696350 11.625031 -35.349636 79.081841 -28.890047 86.856827 -6.224455 1.121802 -51.477661 -26.417110 -6.188518 -90.594666 48.861477 14.538195 98.291939 10.778056 -3.727466 49.940521 -1.651359 6.042873 -90.596947 -48.867210 -14.537455 98.292198 -10.777678 3.722491 49.940300 1.646722 -6.044572 
19.869728 16.744160 26.784323 -89.996941 0.254758 -179.732864 -7.066063 0.067694 -0.135241 28.432112 1.198162 -0.433886 15.697749 0.000000 0.000000 -24.002691 0.000000 0.000000 12.696658 -21.204092 20.944172 58.035313 -66.533104 -50.087540 -89.671349 6.582095 1.462727 46.874794 30.776594 -23.364061 -16.862606 20.627331 12.129579 -35.349636 79.081841 -28.890047 85.699539 -6.200932 0.989964 -51.050217 -26.100992 -6.912285 -90.594666 48.861477 14.538195 98.291939 10.778056 -3.727466 49.940521 -1.651359 6.042873 -90.596947 -48.867210 -14.537455 98.292198 -10.777678 3.722491 49.940300 1.646722 -6.044572 
19.869728 16.744160 26.784323 -89.996941 0.254758 -179.732864 -7.416003 0.067645 -0.135304 27.832474 1.198171 -0.433964 16.047615 0.000000 0.000000 -24.002691 0.000000 0.000000 12.290631 -21.297396 21.484333 57.384346 -66.410683 -49.472416 -88.532509 6.547604 1.324480 46.338329 30.358408 -24.037323 -16.506519 20.561203 12.634666 -35.349636 79.081841 -28.890047 84.540466 -6.174720 0.858423 -50.628120 -25.779865 -7.631930 -90.594666 48.861477 14.538195 98.291939 10.778056 -3.727466 49.940521 -1.651359 6.042873 -90.596947 -48.867210 -14.537455 98.292198 -10.777678 3.722491 49.940300 1.646722 -6.044572 
19.869728 16.744160 26.784323 -89.996941 0.254758 -179.732864 -7.765986 0.067597 -0.135368 27.232607 1.198180 -0.434041 16.397532 0.000000 0.000000 -24.002691 0.000000 0.000000 11.885029 -21.394327 22.024477 56.739803 -66.285431 -48.863735 -87.392265 6.510336 1.186770 45.809551 29.934599 -24.703556 -16.149784 20.497986 13.140251 -35.349636 79.081841 -28.890047 83.379868 -6.145825 0.727263 -50.211422 -25.453817 -8.347395 -90.594666 48.861477 14.538195 98.291939 10.778056 -3.727466 49.940521 -1.651359 6.042873 -90.596947 -48.867210 -14.537455 98.292198 -10.777678 3.722491 49.940300 1.646722 -6.044572 
19.869728 16.744160 26.784323 -89.996941 0.254758 -179.732864 -8.116009 0.067548 -0.135431 26.632547 1.198188 -0.434119 16.747480 0.000000 0.000000 -24.002691 0.000000 0.000000 11.479924 -21.494875 22.564548 56.101768 -66.157455 -48.261578 -86.250854 6.470304 1.049685 45.288441 29.505312 -25.362770 -15.792438 20.437685 13.646275 -35.349636 79.081841 -28.890047 82.217995 -6.114256 0.596567 -49.800179 -25.122953 -9.058635 -90.594666 48.861481 14.538193 98.291939 10.778056 -3.727466 49.940529 -1.651359 6.042874 -90.596947 -48.867210 -14.537455 98.292198 -10.777678 3.722491 49.940300 1.646722 -6.044572 
19.869728 16.744160 26.784323 -89.996941 0.254758 -179.732864 -8.466063 0.067498 -0.135493 26.032326 1.198196 -0.434197 17.097464 0.000000 0.000000 -24.002691 0.000000 0.000000 11.075376 -21.599016 23.104477 55.470295 -66.026817 -47.666000 -85.108505 6.427522 0.913305 44.774998 29.070686 -26.014977 -15.434536 20.380327 14.152699 -35.349636 79.081841 -28.890047 81.055069 -6.080024 0.466416 -49.394444 -24.787380 -9.765603 -90.594666 48.861477 14.538197 98.291939 10.778056 -3.727466 49.940517 -1.651359 6.042873 -90.596947 -48.867210 -14.537455 98.292198 -10.777678 3.722491 49.940300 1.646722 -6.044572 
19.869728 16.744160 26.784323 -89.996941 0.254758 -179.732864 -8.816145 0.067448 -0.135556 25.431969 1.198202 -0.434275 17.447479 0.000000 0.000000 -24.002693 0.000000 0.000000 10.671450 -21.706739 23.644199 54.845387 -65.893517 -47.077011 -83.965462 6.382012 0.777717 44.269218 28.630878 -26.660204 -15.076126 20.325924 14.659472 -35.349636 79.081841 -28.890047 79.891342 -6.043138 0.336895 -48.994244 -24.447191 -10.468265 -90.594666 48.861477 14.538195 98.291939 10.778056 -3.727466 49.940521 -1.651359 6.042873 -90.596947 -48.867210 -14.537455 98.292198 -10.777678 3.722491 49.940300 1.646722 -6.044572 
19.869728 16.744160 26.784323 -89.996941 0.254758 -179.732864 -9.166247 0.067398 -0.135618 24.831505 1.198207 -0.434353 17.797510 0.000000 0.000000 -24.002693 0.000000 0.000000 10.268216 -21.818037 24.183670 54.227104 -65.757614 -46.494671 -82.821968 6.333794 0.643003 43.771080 28.186024 -27.298477 -14.717251 20.274477 15.166539 -35.349636 79.081841 -28.890047 78.727097 -6.003621 0.208084 -48.599640 -24.102501 -11.166587 -90.594666 48.861477 14.538195 98.291939 10.778056 -3.727466 49.940521 -1.651359 6.042873 -90.596947 -48.867210 -14.537455 98.292198 -10.777678 3.722491 49.940300 1.646722 -6.044572 
19.869728 16.744160 26.784323 -89.996941 0.254758 -179.732864 -9.516360 0.067348 -0.135680 24.230980 1.198212 -0.434431 18.147551 0.000000 0.000000 -24.002691 0.000000 0.000000 9.865731 -21.932869 24.722805 53.615417 -65.619133 -45.918934 -81.678246 6.282892 0.509243 43.280537 27.736267 -27.929821 -14.357965 20.226006 15.673859 -35.349636 79.081841 -28.890047 77.562546 -5.961491 0.080064 -48.210640 -23.753408 -11.860540 -90.594666 48.861477 14.538195 98.291939 10.778056 -3.727466 49.940521 -1.651359 6.042873 -90.596947 -48.867210 -14.537455 98.292198 -10.777678 3.722491 49.940300 1.646722 -6.044572 
19.869728 16.744160 26.784323 -89.996941 0.254758 -179.732864 -9.866481 0.067297 -0.135742 23.630428 1.198216 -0.434509 18.497601 0.000000 0.000000 -24.002691 0.000000 0.000000 9.464059 -22.051218 25.261553 53.010418 -65.478188 -45.349911 -80.534538 6.229338 0.376519 42.797569 27.281744 -28.554268 -13.998320 20.180521 16.181383 -35.349636 79.081841 -28.890047 76.397919 -5.916773 -0.047085 -47.827282 -23.400017 -12.550096 -90.594666 48.861477 14.538197 98.291939 10.778056 -3.727466 49.940517 -1.651359 6.042873 -90.596947 -48.867210 -14.537455 98.292198 -10.777678 3.722491 49.940300 1.646722 -6.044572 
19.869728 16.744160 26.784323 -89.996941 0.254758 -179.732864 -10.216602 0.067245 -0.135803 23.029869 1.198219 -0.434587 18.847651 0.000000 0.000000 -24.002691 0.000000 0.000000 9.063264 -22.173065 25.799850 52.412060 -65.334755 -44.787548 -79.391068 6.173160 0.244911 42.322155 26.822618 -29.171871 -13.638354 20.138021 16.689053 -35.349636 79.081841 -28.890047 75.233521 -5.869494 -0.173284 -47.449604 -23.042442 -13.235234 -90.594666 48.861477 14.538195 98.291939 10.778056 -3.727466 49.940521 -1.651359 6.042873 -90.596931 -48.867203 -14.537457 98.292198 -10.777678 3.722491 49.940308 1.646722 -6.044572 
19.869728 16.744160 26.784323 -89.996941 0.254758 -179.732864 -10.566717 0.067194 -0.135864 22.429348 1.198221 -0.434665 19.197697 0.000000 0.000000 -24.002691 0.000000 0.000000 8.663410 -22.298382 26.337635 51.820354 -65.188904 -44.231857 -78.248085 6.114394 0.114497 41.854229 26.359003 -29.782650 -13.278130 20.098526 17.196825 -35.349636 79.081841 -28.890047 74.069550 -5.819683 -0.298453 -47.077606 -22.680777 -13.915936 -90.594666 48.861473 14.538191 98.291939 10.778056 -3.727466 49.940521 -1.651359 6.042873 -90.596947 -48.867210 -14.537455 98.292198 -10.777678 3.722491 49.940300 1.646722 -6.044572 
19.869728 16.744160 26.784323 -89.996941 0.254758 -179.732864 -10.916818 0.067142 -0.135924 21.828890 1.198223 -0.434743 19.547729 0.000000 0.000000 -24.002691 0.000000 0.000000 8.264558 -22.427139 26.874851 51.235332 -65.040680 -43.682869 -77.105820 6.053080 -0.014649 41.393768 25.891066 -30.386683 -12.917688 20.062035 17.704647 -35.349636 79.081841 -28.890047 72.906281 -5.767377 -0.422519 -46.711319 -22.315145 -14.592189 -90.594666 48.861477 14.538195 98.291939 10.778056 -3.727466 49.940521 -1.651359 6.042873 -90.596947 -48.867210 -14.537455 98.292198 -10.777678 3.722491 49.940300 1.646722 -6.044572 
19.869728 16.744160 26.784323 -89.996941 0.254758 -179.732864 -11.266900 0.067089 -0.135985 21.228533 1.198223 -0.434821 19.897736 0.000000 0.000000 -24.002691 0.000000 0.000000 7.866766 -22.559311 27.411434 50.656940 -64.890121 -43.140530 -75.964493 5.989254 -0.142448 40.940731 25.418945 -30.984009 -12.557083 20.028555 18.212473 -35.349636 79.081841 -28.890047 71.743958 -5.712611 -0.545404 -46.350746 -21.945644 -15.263982 -90.594666 48.861477 14.538197 98.291939 10.778056 -3.727466 49.940517 -1.651359 6.042873 -90.596947 -48.867210 -14.537455 98.292198 -10.777678 3.722491 49.940300 1.646722 -6.044572 
